# xmcd
#
# Track frame offsets:
#	150
#	17822
#	34092
#	52855
#	67537
#	82012
#	104739
#	120912
#	139054
#	158631
#	186298
#	199258
#
# Disc length: 2874 seconds
#
# Revision: 0
# Processed by: cddbd v1.5.1PL0 Copyright (c) Steve Scherf et al.
# Submitted via: dBpowerAMP V4.0
#
DISCID=980b380c
DTITLE=Luke O'Shea and Mecicne Wheel - No Day Like Today
DYEAR=2002
DGENRE=
TTITLE0=No Day Like Today
TTITLE1=Jigsaw
TTITLE2=Telephone Lines
TTITLE3=Little Bit More (Little Bit Longer)
TTITLE4=9 out of 10
TTITLE5=Will Heaven Understand
TTITLE6=Bourbon Coloured Sky
TTITLE7=Rocking Chair
TTITLE8=Clear Blue Day
TTITLE9=Cigaretts For Sale
TTITLE10=Wild Party
TTITLE11=Standing In The Rain
EXTD=
EXTT0=
EXTT1=
EXTT2=
EXTT3=
EXTT4=
EXTT5=
EXTT6=
EXTT7=
EXTT8=
EXTT9=
EXTT10=
EXTT11=
PLAYORDER=
